<?xml version="1.0" encoding="utf-8"?>
<!-- Generator: Adobe Illustrator 16.0.0, SVG Export Plug-In . SVG Version: 6.00 Build 0)  -->
<!DOCTYPE svg PUBLIC "-//W3C//DTD SVG 1.1//EN" "http://www.w3.org/Graphics/SVG/1.1/DTD/svg11.dtd">
<svg version="1.1" id="圖層_1" xmlns="http://www.w3.org/2000/svg" xmlns:xlink="http://www.w3.org/1999/xlink" x="0px" y="0px"
	 width="50px" height="50px" viewBox="0 0 50 50" enable-background="new 0 0 50 50" xml:space="preserve">
<path fill="#787A82" d="M44,1h-3.683H9.749H6C3.238,1,1,3.239,1,6v38c0,2.762,2.238,5,5,5h3.682h30.569H44c2.761,0,5-2.238,5-5V6
	C49,3.239,46.761,1,44,1z"/>
<g>
	<g>
		<path fill="#4E5059" d="M32.217,41.577H17.936c-5.203,0-9.437-4.235-9.437-9.437V17.859c0-5.203,4.234-9.437,9.437-9.437h14.281
			c5.204,0,9.437,4.233,9.437,9.437v14.281C41.655,37.342,37.421,41.577,32.217,41.577z M17.936,11.262
			c-3.637,0-6.596,2.96-6.596,6.598v14.279c0,3.639,2.959,6.597,6.596,6.597h14.281c3.638,0,6.595-2.958,6.595-6.597V17.859
			c0-3.638-2.957-6.598-6.595-6.598H17.936z"/>
	</g>
	<g>
		<path fill="#4E5059" d="M25.076,33.489c-4.682,0-8.491-3.809-8.491-8.489c0-4.68,3.809-8.49,8.491-8.49
			c4.681,0,8.491,3.811,8.491,8.49C33.567,29.681,29.757,33.489,25.076,33.489z M25.076,19.35c-3.114,0-5.648,2.535-5.648,5.648
			s2.536,5.649,5.648,5.649s5.647-2.536,5.647-5.649S28.189,19.35,25.076,19.35z"/>
	</g>
	<g>
		<circle fill="#4E5059" cx="33.929" cy="16.023" r="2.04"/>
	</g>
</g>
</svg>
