<?xml version="1.0" encoding="utf-8"?>
<!-- Generator: Adobe Illustrator 16.0.0, SVG Export Plug-In . SVG Version: 6.00 Build 0)  -->
<!DOCTYPE svg PUBLIC "-//W3C//DTD SVG 1.1//EN" "http://www.w3.org/Graphics/SVG/1.1/DTD/svg11.dtd">
<svg version="1.1" id="圖層_1" xmlns="http://www.w3.org/2000/svg" xmlns:xlink="http://www.w3.org/1999/xlink" x="0px" y="0px"
	 width="50px" height="50px" viewBox="0 0 50 50" enable-background="new 0 0 50 50" xml:space="preserve">
<path fill="#00B932" d="M44,1h-3.683H9.749H6C3.238,1,1,3.239,1,6v38c0,2.762,2.238,5,5,5h3.682h30.569H44c2.761,0,5-2.238,5-5V6
	C49,3.239,46.761,1,44,1z"/>
<path fill="#FFFFFF" d="M41.642,22.946c0-7.317-7.337-13.271-16.354-13.271S8.933,15.629,8.933,22.946
	c0,6.562,5.819,12.056,13.677,13.094c0.532,0.115,1.257,0.352,1.44,0.807c0.165,0.413,0.108,1.062,0.053,1.479
	c0,0-0.191,1.154-0.233,1.4c-0.071,0.413-0.328,1.617,1.417,0.881c1.745-0.734,9.419-5.545,12.849-9.495l0,0
	C40.506,28.513,41.642,25.876,41.642,22.946"/>
<path fill="#00B932" d="M21.965,19.411h-1.147c-0.177,0-0.319,0.142-0.319,0.317v7.126c0,0.175,0.143,0.317,0.319,0.317h1.147
	c0.176,0,0.318-0.143,0.318-0.317v-7.126C22.283,19.553,22.141,19.411,21.965,19.411"/>
<path fill="#00B932" d="M29.86,19.411h-1.147c-0.177,0-0.319,0.142-0.319,0.317v4.234l-3.265-4.411
	c-0.008-0.011-0.016-0.021-0.025-0.032c0-0.001-0.001-0.001-0.002-0.002c-0.006-0.007-0.012-0.014-0.02-0.02
	c-0.001-0.002-0.003-0.004-0.006-0.005c-0.005-0.006-0.01-0.01-0.017-0.015c-0.003-0.003-0.005-0.004-0.008-0.006
	c-0.006-0.004-0.011-0.009-0.017-0.013c-0.003-0.002-0.006-0.003-0.01-0.005c-0.006-0.004-0.012-0.007-0.018-0.01
	c-0.003-0.002-0.006-0.003-0.01-0.005c-0.006-0.003-0.012-0.006-0.018-0.008c-0.004-0.001-0.008-0.002-0.011-0.003
	c-0.007-0.003-0.013-0.006-0.019-0.007c-0.004-0.001-0.008-0.002-0.012-0.003c-0.006-0.001-0.012-0.003-0.018-0.005
	c-0.005,0-0.01,0-0.014,0c-0.006-0.002-0.012-0.003-0.018-0.003c-0.004-0.001-0.01-0.001-0.016-0.001c-0.004,0-0.008,0-0.012,0
	h-1.146c-0.176,0-0.318,0.142-0.318,0.317v7.126c0,0.175,0.143,0.317,0.318,0.317h1.146c0.177,0,0.319-0.143,0.319-0.317v-4.232
	l3.27,4.416c0.022,0.031,0.051,0.059,0.08,0.079c0.002,0,0.003,0.001,0.004,0.002c0.007,0.004,0.013,0.008,0.02,0.012
	c0.004,0.002,0.006,0.003,0.009,0.005c0.005,0.003,0.011,0.006,0.016,0.008c0.005,0.001,0.01,0.004,0.016,0.007
	c0.003,0.001,0.007,0.002,0.009,0.003c0.008,0.003,0.016,0.005,0.021,0.007c0.002,0,0.004,0.001,0.006,0.001
	c0.025,0.008,0.053,0.011,0.081,0.011h1.147c0.176,0,0.318-0.143,0.318-0.317v-7.126C30.179,19.553,30.036,19.411,29.86,19.411"/>
<path fill="#00B932" d="M19.199,25.388h-3.117v-5.659c0-0.176-0.143-0.318-0.318-0.318h-1.147c-0.176,0-0.318,0.143-0.318,0.318
	v7.125v0.001c0,0.086,0.034,0.163,0.089,0.22c0.002,0.001,0.003,0.003,0.004,0.005c0.002,0.002,0.004,0.003,0.006,0.005
	c0.057,0.055,0.135,0.088,0.22,0.088l0,0h4.583c0.176,0,0.318-0.143,0.318-0.318v-1.147C19.518,25.53,19.375,25.388,19.199,25.388"
	/>
<path fill="#00B932" d="M36.194,21.194c0.176,0,0.318-0.143,0.318-0.318v-1.147c0-0.175-0.143-0.318-0.318-0.318h-4.582l0,0
	c-0.087,0-0.164,0.035-0.222,0.09c-0.001,0.001-0.003,0.003-0.003,0.004c-0.002,0.002-0.004,0.004-0.006,0.005
	c-0.055,0.058-0.088,0.135-0.088,0.22l0,0v7.126l0,0c0,0.086,0.033,0.163,0.088,0.22c0.002,0.001,0.004,0.003,0.006,0.005
	c0.001,0.002,0.002,0.003,0.004,0.005c0.057,0.055,0.135,0.088,0.221,0.088l0,0h4.582c0.176,0,0.318-0.143,0.318-0.317v-1.148
	c0-0.176-0.143-0.318-0.318-0.318h-3.116v-1.204h3.116c0.176,0,0.318-0.143,0.318-0.318v-1.146c0-0.177-0.143-0.319-0.318-0.319
	h-3.116v-1.205H36.194z"/>
</svg>
