<?xml version="1.0" encoding="utf-8"?>
<!-- Generator: Adobe Illustrator 21.1.0, SVG Export Plug-In . SVG Version: 6.00 Build 0)  -->
<svg version="1.1" xmlns="http://www.w3.org/2000/svg" xmlns:xlink="http://www.w3.org/1999/xlink" x="0px" y="0px"
	 viewBox="0 0 75 69" style="enable-background:new 0 0 75 69;" xml:space="preserve">
<style type="text/css">
	.st0{display:none;}
	.st1{display:inline;}
	.st2{fill:none;stroke:#4F6EA2;stroke-width:2;stroke-miterlimit:10;}
	.st3{fill:none;stroke:#4F6EA2;stroke-width:2;stroke-linecap:round;stroke-linejoin:round;stroke-miterlimit:10;}
	.st4{fill:none;stroke:#4F6EA2;stroke-width:2;stroke-linejoin:round;stroke-miterlimit:10;}
</style>
<g id="圖層_1" class="st0">
	<g class="st1">
		<circle class="st2" cx="37.5" cy="34.9" r="16.3"/>
		<ellipse transform="matrix(0.809 -0.5878 0.5878 0.809 -3.8714 15.7277)" class="st2" cx="22.3" cy="13.8" rx="4" ry="4"/>
		<ellipse transform="matrix(0.809 -0.5878 0.5878 0.809 -22.7575 41.7222)" class="st2" cx="52.8" cy="55.9" rx="4" ry="4"/>
		<ellipse transform="matrix(0.309 -0.9511 0.9511 0.309 -16.6451 30.7273)" class="st2" cx="12.8" cy="26.8" rx="4" ry="4"/>
		<ellipse transform="matrix(0.309 -0.9511 0.9511 0.309 2.2411 88.8528)" class="st2" cx="62.3" cy="42.9" rx="4" ry="4"/>
		<ellipse transform="matrix(0.9511 -0.309 0.309 0.9511 -12.6243 6.0616)" class="st2" cx="12.8" cy="42.9" rx="4" ry="4"/>
		<ellipse transform="matrix(0.9511 -0.309 0.309 0.9511 -5.2398 20.5545)" class="st2" cx="62.3" cy="26.8" rx="4" ry="4"/>
		<ellipse transform="matrix(0.5878 -0.809 0.809 0.5878 -36.0303 41.0493)" class="st2" cx="22.3" cy="55.9" rx="4" ry="4"/>
		<ellipse transform="matrix(0.5878 -0.809 0.809 0.5878 10.5936 48.4338)" class="st2" cx="52.8" cy="13.8" rx="4" ry="4"/>
		<circle class="st2" cx="37.5" cy="60.8" r="4"/>
		<circle class="st2" cx="37.5" cy="8.9" r="4"/>
	</g>
</g>
<g id="圖層_2" class="st0">
	<g class="st1">
		<circle class="st2" cx="37.5" cy="37.3" r="16.3"/>
		<ellipse transform="matrix(0.809 -0.5878 0.5878 0.809 -24.2223 42.1783)" class="st2" cx="52.8" cy="58.4" rx="4" ry="4"/>
		<ellipse transform="matrix(0.309 -0.9511 0.9511 0.309 -19.0269 32.4132)" class="st2" cx="12.8" cy="29.3" rx="4" ry="4"/>
		<ellipse transform="matrix(0.9511 -0.309 0.309 0.9511 -6.0083 20.6665)" class="st2" cx="62.2" cy="29.3" rx="4" ry="4"/>
		<ellipse transform="matrix(0.5878 -0.809 0.809 0.5878 -38.051 42.0477)" class="st2" cx="22.2" cy="58.4" rx="4" ry="4"/>
		<circle class="st2" cx="37.5" cy="11.3" r="4"/>
	</g>
</g>
<g id="圖層_3" class="st0">
	<g class="st1">
		<g>
			<g>
				<circle class="st2" cx="28.4" cy="27.9" r="3"/>
				<circle class="st2" cx="16" cy="27.9" r="3"/>
			</g>
			
				<rect x="11.2" y="12.8" transform="matrix(-1 -1.224647e-16 1.224647e-16 -1 44.4336 34.0286)" class="st2" width="22.1" height="8.4"/>
		</g>
		<g>
			<g>
				<circle class="st2" cx="58.9" cy="27.9" r="3"/>
				<circle class="st2" cx="46.6" cy="27.9" r="3"/>
			</g>
			
				<rect x="41.7" y="12.8" transform="matrix(-1 -1.224647e-16 1.224647e-16 -1 105.5051 34.0286)" class="st2" width="22.1" height="8.4"/>
		</g>
		<g>
			<g>
				<circle class="st2" cx="28.4" cy="53.8" r="3"/>
				<circle class="st2" cx="16" cy="53.8" r="3"/>
			</g>
			
				<rect x="11.2" y="38.8" transform="matrix(-1 -1.224647e-16 1.224647e-16 -1 44.4336 85.9166)" class="st2" width="22.1" height="8.4"/>
		</g>
		<g>
			<g>
				<circle class="st2" cx="58.9" cy="53.8" r="3"/>
				<circle class="st2" cx="46.6" cy="53.8" r="3"/>
			</g>
			
				<rect x="41.7" y="38.8" transform="matrix(-1 -1.224647e-16 1.224647e-16 -1 105.5051 85.9166)" class="st2" width="22.1" height="8.4"/>
		</g>
	</g>
</g>
<g id="圖層_4" class="st0">
	<g class="st1">
		<g>
			<g>
				<circle class="st2" cx="29.5" cy="23.1" r="3"/>
				<circle class="st2" cx="29.5" cy="34.9" r="3"/>
				<circle class="st2" cx="29.5" cy="46.6" r="3"/>
			</g>
			<g>
				<circle class="st2" cx="5" cy="23.1" r="3"/>
				<circle class="st2" cx="5" cy="34.9" r="3"/>
				<circle class="st2" cx="5" cy="46.6" r="3"/>
			</g>
			
				<rect x="1" y="29.8" transform="matrix(-4.192309e-11 1 -1 -4.192309e-11 52.0771 17.6256)" class="st2" width="32.5" height="10.1"/>
		</g>
		<g>
			<g>
				<circle class="st2" cx="69.9" cy="23.1" r="3"/>
				<circle class="st2" cx="69.9" cy="34.9" r="3"/>
				<circle class="st2" cx="69.9" cy="46.6" r="3"/>
			</g>
			<g>
				<circle class="st2" cx="45.5" cy="23.1" r="3"/>
				<circle class="st2" cx="45.5" cy="34.9" r="3"/>
				<circle class="st2" cx="45.5" cy="46.6" r="3"/>
			</g>
			
				<rect x="41.5" y="29.8" transform="matrix(-4.192309e-11 1 -1 -4.192309e-11 92.5337 -22.831)" class="st2" width="32.5" height="10.1"/>
		</g>
	</g>
</g>
<g id="圖層_5" class="st0">
	<g class="st1">
		<g>
			<g>
				<circle class="st2" cx="65.4" cy="11.2" r="3"/>
				<circle class="st2" cx="65.4" cy="22.9" r="3"/>
				<circle class="st2" cx="65.4" cy="34.7" r="3"/>
			</g>
			<circle class="st2" cx="65.4" cy="46.5" r="3"/>
		</g>
		<g>
			<g>
				<circle class="st2" cx="55.2" cy="59.5" r="3"/>
				<circle class="st2" cx="43.5" cy="59.5" r="3"/>
				<circle class="st2" cx="31.7" cy="59.5" r="3"/>
			</g>
			<circle class="st2" cx="19.9" cy="59.5" r="3"/>
		</g>
		<g>
			<g>
				<circle class="st2" cx="9.7" cy="11.2" r="3"/>
				<circle class="st2" cx="9.7" cy="22.9" r="3"/>
				<circle class="st2" cx="9.7" cy="34.7" r="3"/>
			</g>
			<circle class="st2" cx="9.7" cy="46.5" r="3"/>
		</g>
		<polygon class="st2" points="47.6,7.5 47.6,40 27.5,40 27.5,7.5 17.3,7.5 17.3,40 17.3,50.1 57.8,50.1 57.8,40 57.8,7.5 		"/>
	</g>
</g>
<g id="圖層_6" class="st0">
	<g class="st1">
		<g>
			<g>
				<line class="st3" x1="33.8" y1="41.2" x2="33.8" y2="56.1"/>
				<line class="st3" x1="27.5" y1="56.1" x2="40.1" y2="56.1"/>
			</g>
			<g>
				<polyline class="st3" points="43.9,21 16.4,21 33.8,41 46.3,26.7 				"/>
				<path class="st4" d="M51.2,13.9c-4,0-7.2,3.2-7.4,7.1h7.4l-5,5.7c1.3,1.2,3.1,1.9,5,1.9c4.1,0,7.4-3.3,7.4-7.4
					S55.3,13.9,51.2,13.9z"/>
			</g>
		</g>
		<line class="st3" x1="46.3" y1="26.7" x2="21.4" y2="26.7"/>
	</g>
</g>
<g id="圖層_7" class="st0">
	<g class="st1">
		<g>
			<g>
				<ellipse transform="matrix(0.809 -0.5878 0.5878 0.809 -3.2229 11.8049)" class="st2" cx="16.6" cy="10.9" rx="4" ry="4"/>
				<rect x="8.9" y="17.9" class="st2" width="15.3" height="4"/>
			</g>
			<g>
				<ellipse transform="matrix(0.809 -0.5878 0.5878 0.809 0.7744 24.1074)" class="st2" cx="37.5" cy="10.9" rx="4" ry="4"/>
				<rect x="29.8" y="17.9" class="st2" width="15.3" height="4"/>
			</g>
			<g>
				<ellipse transform="matrix(0.809 -0.5878 0.5878 0.809 4.7717 36.4099)" class="st2" cx="58.4" cy="10.9" rx="4" ry="4"/>
				<rect x="50.7" y="17.9" class="st2" width="15.3" height="4"/>
			</g>
		</g>
		<g>
			<g>
				<ellipse transform="matrix(0.809 -0.5878 0.5878 0.809 -15.3653 15.7502)" class="st2" cx="16.6" cy="31.5" rx="4" ry="4"/>
				<rect x="8.9" y="38.5" class="st2" width="15.3" height="4"/>
			</g>
			<g>
				<ellipse transform="matrix(0.809 -0.5878 0.5878 0.809 -11.368 28.0527)" class="st2" cx="37.5" cy="31.5" rx="4" ry="4"/>
				<rect x="29.8" y="38.5" class="st2" width="15.3" height="4"/>
			</g>
			<g>
				<ellipse transform="matrix(0.809 -0.5878 0.5878 0.809 -7.3707 40.3552)" class="st2" cx="58.4" cy="31.5" rx="4" ry="4"/>
				<rect x="50.7" y="38.5" class="st2" width="15.3" height="4"/>
			</g>
		</g>
		<g>
			<g>
				<ellipse transform="matrix(0.809 -0.5878 0.5878 0.809 -27.5076 19.6955)" class="st2" cx="16.6" cy="52.2" rx="4" ry="4"/>
				<rect x="8.9" y="59.2" class="st2" width="15.3" height="4"/>
			</g>
			<g>
				<ellipse transform="matrix(0.809 -0.5878 0.5878 0.809 -23.5103 31.998)" class="st2" cx="37.5" cy="52.2" rx="4" ry="4"/>
				<rect x="29.8" y="59.2" class="st2" width="15.3" height="4"/>
			</g>
			<g>
				<ellipse transform="matrix(0.809 -0.5878 0.5878 0.809 -19.513 44.3005)" class="st2" cx="58.4" cy="52.2" rx="4" ry="4"/>
				<rect x="50.7" y="59.2" class="st2" width="15.3" height="4"/>
			</g>
		</g>
	</g>
</g>
<g id="圖層_8">
	<g>
		<g>
			<g>
				<g>
					<circle class="st2" cx="66.2" cy="17.3" r="3"/>
					<circle class="st2" cx="66.2" cy="29.1" r="3"/>
					<circle class="st2" cx="66.2" cy="40.8" r="3"/>
				</g>
				<circle class="st2" cx="66.2" cy="52.7" r="3"/>
			</g>
			<g>
				<g>
					<circle class="st2" cx="7.5" cy="17.3" r="3"/>
					<circle class="st2" cx="7.5" cy="29.1" r="3"/>
					<circle class="st2" cx="7.5" cy="40.8" r="3"/>
				</g>
				<circle class="st2" cx="7.5" cy="52.7" r="3"/>
			</g>
		</g>
		<g>
			<rect x="15.5" y="13.7" class="st2" width="42.6" height="42.6"/>
			<rect x="25.9" y="24.1" class="st2" width="21.8" height="21.8"/>
		</g>
		<g>
			<g>
				<g>
					<circle class="st2" cx="19.2" cy="5.7" r="3"/>
					<circle class="st2" cx="30.9" cy="5.7" r="3"/>
					<circle class="st2" cx="42.7" cy="5.7" r="3"/>
				</g>
				<circle class="st2" cx="54.5" cy="5.7" r="3"/>
			</g>
			<g>
				<g>
					<circle class="st2" cx="19.2" cy="64.3" r="3"/>
					<circle class="st2" cx="30.9" cy="64.3" r="3"/>
					<circle class="st2" cx="42.7" cy="64.3" r="3"/>
				</g>
				<circle class="st2" cx="54.5" cy="64.3" r="3"/>
			</g>
		</g>
	</g>
</g>
<g id="圖層_9" class="st0">
	<g class="st1">
		<g>
			<g>
				<circle class="st2" cx="56.9" cy="16.9" r="3"/>
				<circle class="st2" cx="56.9" cy="28.6" r="3"/>
				<circle class="st2" cx="56.9" cy="40.4" r="3"/>
			</g>
			<circle class="st2" cx="56.9" cy="52.2" r="3"/>
		</g>
		<g>
			<g>
				<circle class="st2" cx="18.3" cy="16.9" r="3"/>
				<circle class="st2" cx="18.3" cy="28.6" r="3"/>
				<circle class="st2" cx="18.3" cy="40.4" r="3"/>
			</g>
			<circle class="st2" cx="18.3" cy="52.2" r="3"/>
		</g>
		<g>
			<g>
				<g>
					<circle class="st2" cx="37.6" cy="5.2" r="3"/>
				</g>
			</g>
			<g>
				<g>
					<circle class="st2" cx="37.6" cy="63.9" r="3"/>
				</g>
			</g>
		</g>
		<rect x="26.7" y="13.2" class="st2" width="21.8" height="42.6"/>
	</g>
</g>
<g id="圖層_10" class="st0">
	<g class="st1">
		<g>
			<g>
				<circle class="st2" cx="39.2" cy="16.9" r="3"/>
				<circle class="st2" cx="39.2" cy="27.6" r="3"/>
				<circle class="st2" cx="39.2" cy="38.4" r="3"/>
			</g>
			<g>
				<circle class="st2" cx="24.2" cy="16.9" r="3"/>
				<circle class="st2" cx="24.2" cy="27.6" r="3"/>
				<circle class="st2" cx="24.2" cy="38.4" r="3"/>
			</g>
		</g>
		<polygon class="st2" points="17.3,45.7 17.3,55.8 57.7,55.8 57.7,45.7 57.7,13.2 47.6,13.2 47.6,45.7 27.4,45.7 		"/>
	</g>
</g>
</svg>
