<?xml version="1.0" encoding="utf-8"?>
<!-- Generator: Adobe Illustrator 16.0.0, SVG Export Plug-In . SVG Version: 6.00 Build 0)  -->
<!DOCTYPE svg PUBLIC "-//W3C//DTD SVG 1.1//EN" "http://www.w3.org/Graphics/SVG/1.1/DTD/svg11.dtd">
<svg version="1.1" id="圖層_1" xmlns="http://www.w3.org/2000/svg" xmlns:xlink="http://www.w3.org/1999/xlink" x="0px" y="0px"
	 width="50px" height="50px" viewBox="0 0 50 50" enable-background="new 0 0 50 50" xml:space="preserve">
<path fill="#787A82" d="M44,1h-3.683H9.749H6C3.238,1,1,3.239,1,6v38c0,2.762,2.238,5,5,5h3.682h30.569H44c2.761,0,5-2.238,5-5V6
	C49,3.239,46.761,1,44,1z"/>
<path fill="#4E5059" d="M41.43,22.688c0-7.317-7.337-13.271-16.354-13.271S8.722,15.371,8.722,22.688
	c0,6.562,5.818,12.056,13.677,13.094c0.533,0.115,1.257,0.352,1.441,0.807c0.165,0.413,0.108,1.062,0.053,1.479
	c0,0-0.192,1.154-0.234,1.4c-0.071,0.413-0.328,1.617,1.417,0.881c1.746-0.734,9.418-5.545,12.849-9.495l0,0
	C40.294,28.255,41.43,25.618,41.43,22.688"/>
<path fill="#787A82" d="M21.753,19.153h-1.147c-0.176,0-0.319,0.142-0.319,0.317v7.126c0,0.175,0.143,0.317,0.319,0.317h1.147
	c0.176,0,0.318-0.143,0.318-0.317v-7.126C22.071,19.295,21.929,19.153,21.753,19.153"/>
<path fill="#787A82" d="M29.648,19.153h-1.147c-0.176,0-0.318,0.142-0.318,0.317v4.234l-3.265-4.411
	c-0.008-0.011-0.016-0.021-0.025-0.032c-0.001-0.001-0.001-0.001-0.002-0.002c-0.006-0.007-0.013-0.014-0.02-0.02
	c-0.001-0.002-0.003-0.004-0.006-0.005c-0.005-0.006-0.011-0.01-0.017-0.015c-0.002-0.003-0.005-0.004-0.008-0.006
	c-0.006-0.004-0.011-0.009-0.017-0.013c-0.003-0.002-0.006-0.003-0.01-0.005c-0.006-0.004-0.011-0.007-0.017-0.01
	c-0.003-0.002-0.006-0.003-0.01-0.005c-0.006-0.003-0.012-0.006-0.018-0.008c-0.004-0.001-0.007-0.002-0.011-0.003
	c-0.006-0.003-0.013-0.006-0.019-0.007c-0.003-0.001-0.007-0.002-0.011-0.003c-0.006-0.001-0.012-0.003-0.018-0.005
	c-0.004,0-0.009,0-0.013,0c-0.006-0.002-0.011-0.003-0.017-0.003c-0.005-0.001-0.011-0.001-0.016-0.001c-0.004,0-0.007,0-0.012,0
	h-1.146c-0.176,0-0.319,0.142-0.319,0.317v7.126c0,0.175,0.143,0.317,0.319,0.317h1.146c0.177,0,0.319-0.143,0.319-0.317v-4.232
	l3.27,4.416c0.021,0.031,0.05,0.059,0.08,0.079c0.001,0,0.002,0.001,0.004,0.002c0.006,0.004,0.012,0.008,0.02,0.012
	c0.003,0.002,0.006,0.003,0.008,0.005c0.006,0.003,0.011,0.006,0.016,0.008c0.006,0.001,0.01,0.004,0.016,0.007
	c0.004,0.001,0.007,0.002,0.01,0.003c0.008,0.003,0.015,0.005,0.021,0.007c0.002,0,0.003,0.001,0.005,0.001
	c0.026,0.008,0.054,0.011,0.081,0.011h1.147c0.177,0,0.318-0.143,0.318-0.317v-7.126C29.967,19.295,29.825,19.153,29.648,19.153"/>
<path fill="#787A82" d="M18.988,25.13h-3.117v-5.659c0-0.176-0.143-0.318-0.318-0.318h-1.148c-0.176,0-0.318,0.143-0.318,0.318
	v7.125v0.001c0,0.086,0.034,0.163,0.089,0.22c0.001,0.001,0.003,0.003,0.004,0.005c0.002,0.002,0.003,0.003,0.005,0.005
	c0.058,0.055,0.135,0.088,0.22,0.088l0,0h4.583c0.176,0,0.318-0.143,0.318-0.318v-1.147C19.306,25.272,19.164,25.13,18.988,25.13"/>
<path fill="#787A82" d="M35.983,20.937c0.176,0,0.318-0.143,0.318-0.318v-1.147c0-0.175-0.143-0.318-0.318-0.318h-4.582H31.4
	c-0.087,0-0.164,0.035-0.222,0.09c0,0.001-0.002,0.003-0.003,0.004c-0.002,0.002-0.003,0.004-0.005,0.005
	c-0.055,0.058-0.088,0.135-0.088,0.22l0,0v7.126l0,0c0,0.086,0.033,0.163,0.088,0.22c0.002,0.001,0.003,0.003,0.005,0.005
	c0.001,0.002,0.003,0.003,0.005,0.005c0.057,0.055,0.135,0.088,0.22,0.088h0.001h4.582c0.176,0,0.318-0.143,0.318-0.317v-1.148
	c0-0.176-0.143-0.318-0.318-0.318h-3.117v-1.204h3.117c0.176,0,0.318-0.143,0.318-0.318v-1.146c0-0.177-0.143-0.319-0.318-0.319
	h-3.117v-1.205H35.983z"/>
</svg>
