<?xml version="1.0" encoding="utf-8"?>
<!-- Generator: Adobe Illustrator 16.0.0, SVG Export Plug-In . SVG Version: 6.00 Build 0)  -->
<!DOCTYPE svg PUBLIC "-//W3C//DTD SVG 1.1//EN" "http://www.w3.org/Graphics/SVG/1.1/DTD/svg11.dtd">
<svg version="1.1" id="圖層_1" xmlns="http://www.w3.org/2000/svg" xmlns:xlink="http://www.w3.org/1999/xlink" x="0px" y="0px"
	 width="50px" height="50px" viewBox="0 0 50 50" enable-background="new 0 0 50 50" xml:space="preserve">
<radialGradient id="SVGID_1_" cx="25.0762" cy="25" r="24" gradientUnits="userSpaceOnUse">
	<stop  offset="0.1684" style="stop-color:#C2181E"/>
	<stop  offset="0.7653" style="stop-color:#DE2925"/>
</radialGradient>
<path fill="url(#SVGID_1_)" d="M44.076,1h-3.684H9.825H6.076c-2.762,0-5,2.239-5,5v38c0,2.762,2.238,5,5,5h3.682h30.569h3.75
	c2.762,0,5-2.238,5-5V6C49.076,3.239,46.838,1,44.076,1z"/>
<g>
	<path fill="#FFFFFF" d="M34.074,24.343H16.078c-2.861,0-5.18,2.321-5.18,5.182v4.163c0,2.86,2.318,5.18,5.18,5.18h17.997
		c2.861,0,5.18-2.319,5.18-5.18v-4.163C39.254,26.664,36.936,24.343,34.074,24.343z M19.858,27.584h-1.673v8.313h-1.616v-8.313
		h-1.673v-1.415h4.962V27.584z M24.585,35.897h-1.435v-0.786c-0.267,0.291-0.54,0.513-0.828,0.663
		c-0.286,0.155-0.563,0.229-0.833,0.229c-0.333,0-0.58-0.106-0.75-0.321c-0.166-0.215-0.252-0.532-0.252-0.962v-6h1.435v5.506
		c0,0.17,0.031,0.292,0.089,0.367c0.063,0.078,0.16,0.114,0.295,0.114c0.104,0,0.238-0.05,0.399-0.15
		c0.163-0.102,0.31-0.229,0.445-0.386v-5.451h1.435V35.897z M29.791,34.416c0,0.507-0.113,0.896-0.338,1.169
		c-0.225,0.271-0.551,0.404-0.975,0.404c-0.283,0-0.533-0.051-0.75-0.155c-0.221-0.104-0.428-0.265-0.613-0.486v0.55h-1.451v-9.729
		h1.451v3.134c0.193-0.218,0.398-0.385,0.613-0.498c0.219-0.115,0.439-0.171,0.662-0.171c0.455,0,0.801,0.151,1.041,0.457
		c0.24,0.307,0.359,0.754,0.359,1.342V34.416z M34.766,32.481h-2.744v1.353c0,0.378,0.045,0.64,0.139,0.786
		c0.096,0.146,0.258,0.219,0.486,0.219c0.238,0,0.404-0.063,0.5-0.187c0.094-0.124,0.143-0.396,0.143-0.818v-0.327h1.477v0.369
		c0,0.735-0.18,1.289-0.541,1.663c-0.357,0.37-0.895,0.555-1.611,0.555c-0.643,0-1.148-0.196-1.518-0.591
		c-0.367-0.392-0.555-0.936-0.555-1.627v-3.225c0-0.62,0.205-1.131,0.611-1.522s0.926-0.586,1.57-0.586
		c0.656,0,1.162,0.181,1.514,0.544s0.529,0.884,0.529,1.564V32.481z"/>
	<path fill="#FFFFFF" d="M32.66,29.798c-0.229,0-0.391,0.064-0.49,0.198c-0.102,0.126-0.148,0.342-0.148,0.644v0.726h1.268V30.64
		c0-0.302-0.051-0.518-0.15-0.644C33.041,29.862,32.879,29.798,32.66,29.798z"/>
	<path fill="#FFFFFF" d="M27.715,29.773c-0.104,0-0.205,0.022-0.305,0.069c-0.1,0.046-0.197,0.121-0.295,0.22v4.472
		c0.115,0.115,0.229,0.204,0.34,0.255c0.109,0.05,0.225,0.077,0.346,0.077c0.176,0,0.305-0.051,0.387-0.153
		c0.082-0.102,0.125-0.265,0.125-0.494v-3.707c0-0.244-0.049-0.427-0.15-0.552C28.057,29.836,27.906,29.773,27.715,29.773z"/>
	<polygon fill="#FFFFFF" points="18.433,21.85 20.251,21.85 20.251,17.403 22.369,11.132 20.521,11.132 19.395,15.416 
		19.281,15.416 18.1,11.132 16.269,11.132 18.433,17.604 	"/>
	<path fill="#FFFFFF" d="M24.832,22.049c0.733,0,1.309-0.192,1.729-0.577c0.418-0.387,0.627-0.914,0.627-1.591v-4.085
		c0-0.602-0.215-1.097-0.639-1.479c-0.428-0.381-0.975-0.572-1.645-0.572c-0.733,0-1.318,0.181-1.753,0.544
		c-0.435,0.362-0.651,0.849-0.651,1.463v4.099c0,0.672,0.212,1.204,0.635,1.603C23.558,21.85,24.125,22.049,24.832,22.049z
		 M24.162,15.69c0-0.172,0.062-0.311,0.184-0.419c0.125-0.106,0.283-0.158,0.48-0.158c0.215,0,0.387,0.052,0.519,0.158
		c0.132,0.108,0.197,0.247,0.197,0.419v4.308c0,0.212-0.065,0.379-0.194,0.5c-0.129,0.122-0.303,0.182-0.521,0.182
		c-0.213,0-0.378-0.058-0.492-0.179c-0.114-0.119-0.172-0.285-0.172-0.503V15.69z"/>
	<path fill="#FFFFFF" d="M29.625,21.965c0.303,0,0.615-0.087,0.936-0.253c0.324-0.168,0.635-0.416,0.93-0.738v0.876h1.617v-7.906
		H31.49v6.002c-0.148,0.172-0.316,0.313-0.496,0.425c-0.184,0.111-0.334,0.166-0.451,0.166c-0.152,0-0.262-0.041-0.328-0.127
		c-0.068-0.083-0.105-0.218-0.105-0.404v-6.062h-1.611v6.608c0,0.471,0.094,0.823,0.281,1.057
		C28.971,21.845,29.25,21.965,29.625,21.965z"/>
</g>
</svg>
