<?xml version="1.0" encoding="utf-8"?>
<!-- Generator: Adobe Illustrator 16.0.0, SVG Export Plug-In . SVG Version: 6.00 Build 0)  -->
<!DOCTYPE svg PUBLIC "-//W3C//DTD SVG 1.1//EN" "http://www.w3.org/Graphics/SVG/1.1/DTD/svg11.dtd">
<svg version="1.1" id="圖層_1" xmlns="http://www.w3.org/2000/svg" xmlns:xlink="http://www.w3.org/1999/xlink" x="0px" y="0px"
	 width="50px" height="50px" viewBox="0 0 50 50" enable-background="new 0 0 50 50" xml:space="preserve">
<radialGradient id="SVGID_1_" cx="25" cy="25" r="24" gradientUnits="userSpaceOnUse">
	<stop  offset="0" style="stop-color:#3B5998"/>
	<stop  offset="0.301" style="stop-color:#3B5998"/>
</radialGradient>
<path fill="url(#SVGID_1_)" d="M44,1h-3.684H9.749H6C3.238,1,1,3.239,1,6v38c0,2.762,2.238,5,5,5h3.682h30.569H44
	c2.762,0,5-2.238,5-5V6C49,3.239,46.762,1,44,1z"/>
<path fill="#FFFFFF" d="M41.645,22.073h-6.33v-4.151c0-1.56,1.033-1.923,1.761-1.923c0.727,0,4.467,0,4.467,0V9.144L35.389,9.12
	c-6.83,0-8.385,5.113-8.385,8.385v4.568h-3.949v7.063h3.949c0,9.065,0,19.988,0,19.988h8.311c0,0,0-11.03,0-19.988h5.604
	L41.645,22.073z"/>
</svg>
