<?xml version="1.0" encoding="utf-8"?>
<!-- Generator: Adobe Illustrator 16.0.0, SVG Export Plug-In . SVG Version: 6.00 Build 0)  -->
<!DOCTYPE svg PUBLIC "-//W3C//DTD SVG 1.1//EN" "http://www.w3.org/Graphics/SVG/1.1/DTD/svg11.dtd">
<svg version="1.1" id="圖層_1" xmlns="http://www.w3.org/2000/svg" xmlns:xlink="http://www.w3.org/1999/xlink" x="0px" y="0px"
	 width="50px" height="50px" viewBox="0 0 50 50" enable-background="new 0 0 50 50" xml:space="preserve">
<radialGradient id="SVGID_1_" cx="10.2954" cy="42.8027" r="57.2014" gradientUnits="userSpaceOnUse">
	<stop  offset="0.0969" style="stop-color:#FFD879"/>
	<stop  offset="0.1539" style="stop-color:#FCCB76"/>
	<stop  offset="0.2583" style="stop-color:#F5AA6C"/>
	<stop  offset="0.3976" style="stop-color:#E9755E"/>
	<stop  offset="0.449" style="stop-color:#E45F58"/>
	<stop  offset="0.6786" style="stop-color:#D22A9C"/>
	<stop  offset="1" style="stop-color:#6968DF"/>
</radialGradient>
<path fill="url(#SVGID_1_)" d="M44,1h-3.684H9.749H6C3.238,1,1,3.239,1,6v38c0,2.762,2.238,5,5,5h3.682H40.25H44
	c2.762,0,5-2.238,5-5V6C49,3.239,46.762,1,44,1z"/>
<g>
	<g>
		<path fill="#FFFFFF" d="M32.141,41.577H17.859c-5.203,0-9.437-4.235-9.437-9.437V17.859c0-5.203,4.234-9.437,9.437-9.437h14.281
			c5.203,0,9.436,4.233,9.436,9.437v14.281C41.578,37.342,37.344,41.577,32.141,41.577z M17.859,11.262
			c-3.637,0-6.596,2.96-6.596,6.598v14.279c0,3.639,2.959,6.597,6.596,6.597h14.281c3.637,0,6.594-2.958,6.594-6.597V17.859
			c0-3.638-2.957-6.598-6.594-6.598H17.859z"/>
	</g>
	<g>
		<path fill="#FFFFFF" d="M25,33.489c-4.682,0-8.491-3.809-8.491-8.489c0-4.68,3.809-8.49,8.491-8.49c4.679,0,8.49,3.811,8.49,8.49
			C33.49,29.681,29.68,33.489,25,33.489z M25,19.35c-3.114,0-5.648,2.535-5.648,5.648s2.536,5.649,5.648,5.649
			c3.111,0,5.646-2.536,5.646-5.649S28.113,19.35,25,19.35z"/>
	</g>
	<g>
		<circle fill="#FFFFFF" cx="33.852" cy="16.023" r="2.04"/>
	</g>
</g>
</svg>
