<?xml version="1.0" encoding="utf-8"?>
<!-- Generator: Adobe Illustrator 16.0.0, SVG Export Plug-In . SVG Version: 6.00 Build 0)  -->
<!DOCTYPE svg PUBLIC "-//W3C//DTD SVG 1.1//EN" "http://www.w3.org/Graphics/SVG/1.1/DTD/svg11.dtd">
<svg version="1.1" id="圖層_1" xmlns="http://www.w3.org/2000/svg" xmlns:xlink="http://www.w3.org/1999/xlink" x="0px" y="0px"
	 width="290px" height="85px" viewBox="21.769 17.731 290 85" enable-background="new 21.769 17.731 290 85" xml:space="preserve">
<g>
	<path fill="#C61D09" d="M51.825,57.736c-1.395-0.696-3.685-1.593-6.771-1.593c-3.386,0-5.029,1.643-5.029,3.535
		c0,2.141,1.593,3.187,6.274,5.328c6.124,2.738,8.663,6.522,8.663,11.302c0,7.021-5.328,11.999-14.639,11.999
		c-3.883,0-7.717-0.996-9.51-1.992l1.494-7.368c2.041,1.046,5.278,1.991,8.365,1.991c3.684,0,5.477-1.593,5.477-3.884
		c0-2.339-1.743-3.634-5.726-5.427c-6.075-2.788-9.211-6.573-9.211-11.152c0-6.522,4.979-11.651,13.891-11.651
		c3.685,0,6.523,0.797,8.365,1.693L51.825,57.736z"/>
	<path fill="#C61D09" d="M64.474,66.211c1.448-2.283,3.863-3.599,6.848-3.599c5.444,0,9.175,5.267,9.175,12.643
		c0,9.043-5.048,13.037-9.878,13.037c-2.502,0-4.389-1.141-5.267-2.502H65.22v11.854h-7.727V71.26c0-3.073-0.087-5.795-0.175-8.166
		h6.673l0.395,3.117H64.474z M65.22,77.889c0,2.502,1.404,4.346,3.38,4.346c2.722,0,4.083-2.854,4.083-6.717
		c0-4.126-1.405-6.673-3.995-6.673c-1.8,0-3.468,1.625-3.468,4.259V77.889z"/>
	<path fill="#C61D09" d="M102.617,81.971c0,2.195,0.088,4.348,0.395,5.839h-6.936l-0.439-2.37h-0.131
		c-1.493,1.975-3.82,2.854-6.366,2.854c-4.477,0-7.419-3.424-7.419-7.595c0-6.541,5.838-9.351,13.126-9.395
		c0-1.888-0.834-3.249-3.951-3.249c-2.327,0-4.521,0.702-6.102,1.668l-1.405-5.004c1.58-0.878,4.785-2.108,9.043-2.108
		c8.166,0,10.185,5.18,10.185,10.668V81.971z M95.11,76.131c-3.204,0-5.926,0.923-5.926,3.775c0,2.021,1.229,2.897,2.59,2.897
		c1.58,0,3.336-1.142,3.336-3.468V76.131z"/>
	<path fill="#C61D09" d="M123.026,87.327c-1.053,0.482-3.248,0.922-5.663,0.922c-7.375,0-12.072-4.608-12.072-12.512
		c0-7.463,4.829-13.082,13.126-13.082c1.931,0,3.775,0.395,4.873,0.79l-1.098,5.839c-0.79-0.264-1.844-0.571-3.38-0.571
		c-3.512,0-5.751,2.722-5.707,6.718c0,4.302,2.458,6.716,5.751,6.716c1.36,0,2.502-0.22,3.468-0.613L123.026,87.327z"/>
	<path fill="#C61D09" d="M144.49,86.888c-2.283,0.922-5.225,1.36-8.166,1.36c-7.77,0-12.16-4.652-12.16-12.379
		c0-7.068,4.127-13.258,11.502-13.258c5.882,0,10.052,3.951,10.052,12.335c0,1.185-0.044,2.415-0.218,3.249h-13.961
		c0.175,2.94,2.809,4.303,6.014,4.303c2.24,0,4.171-0.396,5.927-0.967L144.49,86.888z M138.651,72.884
		c0-2.195-0.702-4.961-3.381-4.961c-2.634,0-3.643,2.898-3.774,4.961H138.651z"/>
	<path fill="#C61D09" d="M173.196,87.81h-2.854l-3.949-11.414h-12.599l-3.907,11.414h-2.766l11.633-33.319h2.811L173.196,87.81z
		 M165.689,74.202l-3.775-10.757c-0.747-2.326-1.273-4.258-1.756-6.189h-0.132c-0.44,1.975-1.01,3.906-1.713,6.013l-3.818,10.933
		H165.689z"/>
	<path fill="#C61D09" d="M195.537,82.19c0,1.8,0.088,3.996,0.219,5.62h-2.459l-0.176-4.347h-0.132
		c-1.185,2.59-3.95,4.871-8.165,4.871c-5.707,0-10.009-4.783-10.009-12.026c0-7.946,4.785-12.819,10.492-12.819
		c3.817,0,6.319,1.976,7.419,4.039h0.088V52.777h2.723V82.19z M192.814,73.499c0-4.874-3.514-7.771-7.244-7.771
		c-4.916,0-7.988,4.478-7.988,10.403c0,5.226,2.545,9.967,7.857,9.967c4.916,0,7.375-4.564,7.375-7.858V73.499z"/>
	<path fill="#C61D09" d="M219.457,64.016l-9.396,23.794h-2.458l-9.043-23.794h2.896l5.269,14.531
		c0.878,2.238,1.581,4.258,2.194,6.232h0.088c0.615-1.932,1.406-4.037,2.24-6.232l5.354-14.531H219.457z"/>
	<path fill="#C61D09" d="M223.667,59.494c-1.186,0-2.02-1.009-2.02-2.194c0-1.142,0.878-2.151,2.063-2.151
		c1.229,0,2.021,0.965,2.021,2.151C225.73,58.616,224.853,59.494,223.667,59.494 M225.028,87.81h-2.722V64.06h2.722V87.81z"/>
	<path fill="#C61D09" d="M241.841,67.133c-0.836-0.57-2.371-1.448-4.609-1.448c-2.896,0-4.436,1.844-4.436,3.95
		c0,2.371,1.537,3.381,4.697,4.74c3.819,1.537,6.104,3.47,6.104,7.025c0,4.346-3.337,6.891-8.078,6.891
		c-2.326,0-4.479-0.657-6.059-1.623l0.922-2.194c1.229,0.746,3.16,1.624,5.269,1.624c3.556,0,5.269-1.932,5.269-4.348
		c0-2.457-1.448-3.817-4.784-5.18c-3.863-1.535-6.015-3.688-6.015-6.541c0-3.511,2.81-6.542,7.418-6.542
		c2.195,0,4.039,0.659,5.313,1.493L241.841,67.133z"/>
	<path fill="#C61D09" d="M268.132,75.693c0,8.867-5.926,12.644-11.149,12.644c-6.103,0-10.8-4.653-10.8-12.205
		c0-8.165,5.225-12.642,11.107-12.642C263.832,63.49,268.132,68.495,268.132,75.693 M257.203,65.685
		c-5.752,0-8.254,5.354-8.254,10.315c0,5.664,3.469,10.142,8.121,10.142c4.74,0,8.297-4.478,8.297-10.315
		C265.367,71.479,263.041,65.685,257.203,65.685"/>
	<path fill="#C61D09" d="M294.667,40.181c0.07-0.233,0.082-0.46,0.021-0.66l0.43-0.156c0.064-0.271,0.168-0.706,0.252-1.057
		c-0.613,0.828-1.117,1.731-1.688,2.626c-3.658,5.769-9.282,17.689-12.109,24.165c-1.755,4.065-2.503,5.551-3.15,6.427
		c-0.223,0.289-0.385,0.561-0.521,0.873c-0.313-0.681-0.636-2.025-0.865-2.911c-0.164-0.661-0.058-0.61-0.273-1.732
		c-0.309-1.395-0.563-2.827-0.732-4.317c-0.189-1.142-2.068,0.142-2.812-0.057c-2.495-1.718-4.068-0.452-4.212,0.036
		c-0.074,0.676,0.008,1.544,0.271,2.116c0.396,0.314,0.435,0.723,0.795,1.103c0.345,1.319,0.642,2.365,0.878,3.576
		c0.562,2.189,1.387,4.682,2.217,7.017c1.713,4.806,3.357,8.808,4.852,14.146l0.154,0.504c0.688-2.051,1.425-4.979,2.268-7.811
		c1.598-4.706,2.668-7.859,3.696-10.893c0.789-2.256,1.563-4.467,2.397-6.857c1.297-3.584,5.693-13.379,7.563-17.013
		c0.956-1.937,1.272-3.912,1.923-5.638c0.564-1.212,1.482-2.335,2.044-3.251"/>
	<path fill="#C61D09" d="M298.484,33.754c-0.084,0.03,0.176,0.079,0.03,0.13c-0.146,0.072-0.093,0.166-0.229,0.297
		c-0.133,0.244-0.188,0.487-0.369,0.724c0.11-0.325,0.336-0.552,0.519-0.724c0.071-0.14,0.179-0.304,0.259-0.46l0.055-0.15
		c-0.437,0.541-0.857,1.083-1.234,1.66c-0.063,0.132-0.117,0.248-0.188,0.394c-0.199,0.467-0.394,0.93-0.805,1.035l-0.212,0.304
		l0.085-0.032l-0.123,0.087l-0.9,1.288c-0.082,0.351-0.187,0.786-0.25,1.058c0,0-0.287,0.104-0.43,0.155
		c0.061,0.2,0.049,0.428-0.023,0.66c0.291-0.153,0.611-0.321,0.812-0.426c0.418-0.158-0.112-0.975,0.589-1.036
		c-0.701,0.061-0.171,0.878-0.589,1.036c-0.199,0.105-0.521,0.273-0.812,0.426"/>
	<path fill="#C61D09" d="M298.457,34.188c0.078-0.138,0.144-0.25,0.213-0.375c-0.369,0.446-0.725,0.905-1.045,1.389
		C298.035,35.105,298.216,34.63,298.457,34.188"/>
	<path fill="#C61D09" d="M298.484,33.754c-0.084,0.03,0.176,0.079,0.03,0.13c-0.146,0.072-0.093,0.166-0.229,0.297
		c-0.133,0.244-0.188,0.487-0.369,0.724c0.11-0.325,0.336-0.552,0.519-0.724c0.071-0.14,0.179-0.304,0.259-0.46l0.055-0.15
		c-0.437,0.541-0.857,1.083-1.234,1.66c-0.063,0.132-0.117,0.248-0.188,0.394c-0.199,0.467-0.394,0.93-0.805,1.035l-0.212,0.304
		l0.085-0.032l-0.123,0.087l-0.9,1.288c-0.082,0.351-0.187,0.786-0.25,1.058c0,0-0.287,0.104-0.43,0.155
		c0.061,0.2,0.049,0.428-0.023,0.66c0.291-0.153,0.611-0.321,0.812-0.426c0.418-0.158-0.112-0.975,0.589-1.036
		c-0.701,0.061-0.171,0.878-0.589,1.036"/>
	<path fill="#C61D09" d="M298.457,34.188c0.078-0.138,0.144-0.25,0.213-0.375c-0.369,0.446-0.725,0.905-1.045,1.389
		C298.035,35.105,298.216,34.63,298.457,34.188"/>
	<path fill="#C61D09" d="M298.671,33.813l0.756-1.091c0.131-0.106,0.279-0.199,0.461-0.267c0.183-0.132,0.139-0.302,0.138-0.501
		c1.209-1.692,2.692-3.222,4.149-4.948c0,0,0.709-0.431,1.244-0.583c0.11-0.032,0.217-0.052,0.306-0.052
		c-0.132,0.144-0.251,0.276-0.351,0.383c-0.152-0.077-0.283-0.219-0.509-0.086c-0.061,0.174-0.185,0.52-0.185,0.52
		c-0.811,0.268-1.209,0.986-1.602,1.691l0.455-0.065c0.271-0.363,0.18-0.512-0.183-0.299c0.883-0.45,1.476-1.063,2.021-1.761
		l0.055,0.024c-0.817,1.303-1.627,2.738-2.264,3.996c-0.244-0.001-0.455-0.101-0.666-0.205c0.147-0.112,0.633-0.479,0.781-0.592
		c-0.148,0.113-0.634,0.48-0.781,0.592c0.211,0.104,0.422,0.204,0.666,0.205l-0.258,0.524c-0.174,0.242-0.35,0.464-0.548,0.671
		l-1.058,0.985c-0.533,0.451-0.389,1.562-0.891,2.481c-0.042,0.17-0.517-0.201-0.602,0.142c-0.283,0.745-0.401,1.459-0.785,2.066
		c-0.061,0.353-0.903,0.437-0.967,0.791c-0.272,0.753-0.627,2.833-0.039,1.83"/>
	<path fill="#C61D09" d="M299.427,32.721c0,0-0.643,0.503-1.279,1.506c-1.063,1.911-3.84,6.486-3.84,6.486l0.65,0.795
		c0,0,2.808,1.936,4.067-3.865C300.166,33.793,302.111,29.286,299.427,32.721"/>
	<path fill="#C61D09" d="M302.914,29.286c0,0,2.317-1.636,2.812-2.915C304.867,26.667,303.565,27.164,302.914,29.286"/>
	<path fill="#C61D09" d="M298.515,38.736c0,0,1.373-2.082,2.175-4.02C299.998,33.637,299.419,35.771,298.515,38.736"/>
</g>
<rect fill="none" width="336.539" height="138.461"/>
</svg>
