<?xml version="1.0" encoding="iso-8859-1"?>
<!-- Generator: Adobe Illustrator 19.0.0, SVG Export Plug-In . SVG Version: 6.00 Build 0)  -->
<svg version="1.1" id="&#x5716;&#x5C64;_1" xmlns="http://www.w3.org/2000/svg" xmlns:xlink="http://www.w3.org/1999/xlink" x="0px"
	 y="0px" viewBox="0 0 300 85" style="enable-background:new 0 0 300 85;" xml:space="preserve">
<g id="XMLID_51_">
	<g id="XMLID_52_">
		<defs>
			<rect id="XMLID_9_" x="-27.047" y="-9.337" width="270.766" height="111.401"/>
		</defs>
		<clipPath id="XMLID_41_">
			<use xlink:href="#XMLID_9_"  style="overflow:visible;"/>
		</clipPath>
		<g id="XMLID_54_" style="clip-path:url(#XMLID_41_);">
			<defs>
				<rect id="XMLID_10_" x="-27.047" y="-9.337" width="270.766" height="111.401"/>
			</defs>
			<clipPath id="XMLID_42_">
				<use xlink:href="#XMLID_10_"  style="overflow:visible;"/>
			</clipPath>
			<path id="XMLID_37_" style="clip-path:url(#XMLID_42_);fill:#C61C09;" d="M22.872,37.921c-1.122-0.56-2.965-1.282-5.448-1.282
				c-2.724,0-4.046,1.322-4.046,2.844c0,1.723,1.282,2.564,5.048,4.287c4.927,2.203,6.97,5.247,6.97,9.093
				c0,5.648-4.287,9.654-11.778,9.654c-3.124,0-6.209-0.801-7.651-1.603l1.202-5.928c1.642,0.841,4.246,1.602,6.73,1.602
				c2.964,0,4.407-1.282,4.407-3.125c0-1.882-1.402-2.923-4.607-4.366c-4.888-2.243-7.411-5.288-7.411-8.973
				c0-5.247,4.006-9.374,11.176-9.374c2.965,0,5.248,0.641,6.73,1.362L22.872,37.921z"/>
			<path id="XMLID_86_" style="clip-path:url(#XMLID_42_);fill:#C61C09;" d="M33.048,44.739c1.165-1.837,3.108-2.896,5.51-2.896
				c4.38,0,7.382,4.238,7.382,10.171c0,7.276-4.061,10.49-7.947,10.49c-2.013,0-3.531-0.917-4.238-2.013h-0.106v9.536h-6.217V48.801
				c0-2.472-0.07-4.662-0.141-6.57h5.369l0.318,2.508H33.048z M33.648,54.135c0,2.013,1.13,3.497,2.719,3.497
				c2.19,0,3.285-2.296,3.285-5.404c0-3.32-1.13-5.369-3.214-5.369c-1.448,0-2.79,1.307-2.79,3.427V54.135z"/>
			<path id="XMLID_83_" style="clip-path:url(#XMLID_42_);fill:#C61C09;" d="M63.737,57.419c0,1.766,0.071,3.497,0.318,4.698h-5.58
				l-0.353-1.907h-0.105c-1.201,1.588-3.073,2.295-5.122,2.295c-3.602,0-5.969-2.755-5.969-6.11c0-5.263,4.697-7.523,10.561-7.558
				c0-1.519-0.671-2.614-3.179-2.614c-1.872,0-3.637,0.565-4.909,1.342l-1.13-4.026c1.271-0.706,3.85-1.696,7.276-1.696
				c6.57,0,8.194,4.168,8.194,8.583V57.419z M57.697,52.721c-2.578,0-4.768,0.742-4.768,3.037c0,1.625,0.989,2.332,2.084,2.332
				c1.271,0,2.684-0.918,2.684-2.79V52.721z"/>
			<path id="XMLID_32_" style="clip-path:url(#XMLID_42_);fill:#C61C09;" d="M80.157,61.728c-0.847,0.388-2.613,0.742-4.556,0.742
				c-5.934,0-9.713-3.709-9.713-10.067c0-6.004,3.885-10.525,10.561-10.525c1.554,0,3.037,0.318,3.921,0.636l-0.883,4.698
				c-0.636-0.212-1.484-0.459-2.719-0.459c-2.826,0-4.627,2.189-4.592,5.404c0,3.461,1.978,5.403,4.627,5.403
				c1.094,0,2.013-0.176,2.79-0.494L80.157,61.728z"/>
			<path id="XMLID_79_" style="clip-path:url(#XMLID_42_);fill:#C61C09;" d="M97.426,61.375c-1.837,0.742-4.204,1.095-6.57,1.095
				c-6.251,0-9.783-3.744-9.783-9.96c0-5.687,3.32-10.666,9.254-10.666c4.732,0,8.087,3.179,8.087,9.924
				c0,0.953-0.035,1.943-0.175,2.614H87.007c0.141,2.366,2.26,3.461,4.839,3.461c1.802,0,3.356-0.318,4.769-0.777L97.426,61.375z
				 M92.729,50.108c0-1.766-0.565-3.991-2.72-3.991c-2.119,0-2.931,2.332-3.036,3.991H92.729z"/>
			<path id="XMLID_76_" style="clip-path:url(#XMLID_42_);fill:#C61C09;" d="M120.522,62.116h-2.296l-3.179-9.183h-10.137
				l-3.143,9.183h-2.225l9.359-26.807h2.261L120.522,62.116z M114.482,51.168l-3.037-8.654c-0.601-1.871-1.025-3.426-1.413-4.979
				h-0.106c-0.354,1.589-0.813,3.143-1.378,4.838l-3.072,8.795H114.482z"/>
			<path id="XMLID_73_" style="clip-path:url(#XMLID_42_);fill:#C61C09;" d="M138.496,57.595c0,1.448,0.071,3.215,0.176,4.522
				h-1.978l-0.141-3.497h-0.106c-0.953,2.084-3.178,3.92-6.569,3.92c-4.592,0-8.053-3.849-8.053-9.677
				c0-6.393,3.85-10.314,8.441-10.314c3.073,0,5.086,1.59,5.969,3.25h0.071V33.931h2.19V57.595z M136.306,50.602
				c0-3.921-2.826-6.251-5.828-6.251c-3.955,0-6.428,3.603-6.428,8.371c0,4.203,2.048,8.018,6.322,8.018
				c3.955,0,5.934-3.674,5.934-6.323V50.602z"/>
			<path id="XMLID_25_" style="clip-path:url(#XMLID_42_);fill:#C61C09;" d="M157.742,42.973l-7.559,19.144h-1.978l-7.276-19.144
				h2.331l4.238,11.691c0.706,1.801,1.272,3.426,1.766,5.016h0.071c0.494-1.554,1.13-3.249,1.801-5.016l4.308-11.691H157.742z"/>
			<path id="XMLID_69_" style="clip-path:url(#XMLID_42_);fill:#C61C09;" d="M161.129,39.335c-0.953,0-1.624-0.812-1.624-1.765
				c0-0.919,0.706-1.731,1.66-1.731c0.989,0,1.624,0.776,1.624,1.731C162.789,38.628,162.083,39.335,161.129,39.335 M162.224,62.117
				h-2.19V43.008h2.19V62.117z"/>
			<path id="XMLID_22_" style="clip-path:url(#XMLID_42_);fill:#C61C09;" d="M175.751,45.481c-0.672-0.459-1.908-1.165-3.708-1.165
				c-2.332,0-3.568,1.484-3.568,3.178c0,1.908,1.237,2.72,3.779,3.814c3.073,1.237,4.91,2.791,4.91,5.652
				c0,3.496-2.685,5.544-6.499,5.544c-1.871,0-3.603-0.529-4.874-1.307l0.742-1.765c0.989,0.6,2.542,1.307,4.238,1.307
				c2.86,0,4.238-1.554,4.238-3.497c0-1.978-1.166-3.072-3.85-4.168c-3.108-1.236-4.839-2.966-4.839-5.263
				c0-2.825,2.261-5.263,5.969-5.263c1.767,0,3.25,0.53,4.275,1.201L175.751,45.481z"/>
			<path id="XMLID_65_" style="clip-path:url(#XMLID_42_);fill:#C61C09;" d="M196.905,52.368c0,7.134-4.768,10.171-8.972,10.171
				c-4.909,0-8.688-3.744-8.688-9.819c0-6.569,4.203-10.171,8.936-10.171C193.444,42.55,196.905,46.576,196.905,52.368
				 M188.11,44.316c-4.627,0-6.64,4.308-6.64,8.3c0,4.556,2.79,8.159,6.534,8.159c3.814,0,6.675-3.603,6.675-8.3
				C194.679,48.977,192.808,44.316,188.11,44.316"/>
			<path id="XMLID_19_" style="clip-path:url(#XMLID_42_);fill:#C61C09;" d="M218.254,23.796c0.057-0.187,0.067-0.37,0.018-0.531
				l0.346-0.126c0.051-0.219,0.135-0.568,0.202-0.85c-0.494,0.666-0.899,1.393-1.357,2.113c-2.943,4.642-7.468,14.232-9.742,19.442
				c-1.412,3.271-2.014,4.466-2.536,5.171c-0.179,0.233-0.309,0.45-0.418,0.702c-0.253-0.548-0.512-1.63-0.696-2.342
				c-0.132-0.533-0.047-0.492-0.221-1.394c-0.248-1.122-0.451-2.275-0.589-3.473c-0.153-0.919-1.665,0.114-2.262-0.046
				c-2.007-1.382-3.273-0.364-3.389,0.029c-0.06,0.544,0.006,1.242,0.218,1.702c0.317,0.253,0.349,0.582,0.64,0.887
				c0.277,1.061,0.516,1.903,0.706,2.878c0.451,1.762,1.116,3.766,1.784,5.645c1.377,3.866,2.702,7.086,3.903,11.381l0.125,0.405
				c0.554-1.651,1.146-4.006,1.824-6.284c1.285-3.786,2.147-6.325,2.974-8.764c0.635-1.814,1.258-3.594,1.93-5.517
				c1.043-2.884,4.58-10.764,6.085-13.688c0.769-1.558,1.024-3.147,1.547-4.536c0.455-0.975,1.192-1.879,1.645-2.616"/>
			<path id="XMLID_18_" style="clip-path:url(#XMLID_42_);fill:#C61C09;" d="M221.324,18.626c-0.068,0.024,0.142,0.064,0.025,0.105
				c-0.118,0.058-0.074,0.134-0.185,0.239c-0.107,0.196-0.152,0.392-0.298,0.583c0.089-0.261,0.27-0.444,0.418-0.583
				c0.057-0.113,0.143-0.245,0.208-0.37l0.043-0.121c-0.35,0.435-0.69,0.871-0.993,1.336c-0.051,0.106-0.094,0.2-0.15,0.317
				c-0.16,0.376-0.316,0.748-0.647,0.833l-0.171,0.245l0.068-0.026l-0.099,0.07l-0.725,1.036c-0.067,0.282-0.15,0.632-0.202,0.851
				c0,0-0.23,0.083-0.345,0.125c0.049,0.161,0.039,0.344-0.019,0.531c0.234-0.123,0.492-0.258,0.653-0.343
				c0.336-0.127-0.092-0.784,0.473-0.834c-0.565,0.049-0.137,0.706-0.473,0.834c-0.161,0.084-0.418,0.22-0.653,0.343"/>
			<path id="XMLID_17_" style="clip-path:url(#XMLID_42_);fill:#C61C09;" d="M221.302,18.974c0.064-0.111,0.115-0.201,0.172-0.302
				c-0.298,0.359-0.583,0.728-0.841,1.118C220.963,19.712,221.109,19.33,221.302,18.974"/>
			<path id="XMLID_16_" style="clip-path:url(#XMLID_42_);fill:#C61C09;" d="M221.324,18.626c-0.068,0.024,0.142,0.064,0.025,0.105
				c-0.118,0.058-0.074,0.134-0.185,0.239c-0.107,0.196-0.152,0.392-0.298,0.583c0.089-0.261,0.27-0.444,0.418-0.583
				c0.057-0.113,0.143-0.245,0.208-0.37l0.043-0.121c-0.35,0.435-0.69,0.871-0.993,1.336c-0.051,0.106-0.094,0.2-0.15,0.317
				c-0.16,0.376-0.316,0.748-0.647,0.833l-0.171,0.245l0.068-0.026l-0.099,0.07l-0.725,1.036c-0.067,0.282-0.15,0.632-0.202,0.851
				c0,0-0.23,0.083-0.345,0.125c0.049,0.161,0.039,0.344-0.019,0.531c0.234-0.123,0.492-0.258,0.653-0.343
				c0.336-0.127-0.092-0.784,0.473-0.834c-0.565,0.049-0.137,0.706-0.473,0.834"/>
			<path id="XMLID_15_" style="clip-path:url(#XMLID_42_);fill:#C61C09;" d="M221.302,18.974c0.064-0.111,0.115-0.201,0.172-0.302
				c-0.298,0.359-0.583,0.728-0.841,1.118C220.963,19.712,221.109,19.33,221.302,18.974"/>
			<path id="XMLID_14_" style="clip-path:url(#XMLID_42_);fill:#C61C09;" d="M221.474,18.672l0.608-0.878
				c0.105-0.085,0.226-0.16,0.371-0.215c0.147-0.106,0.112-0.243,0.111-0.403c0.973-1.361,2.166-2.592,3.338-3.981
				c0,0,0.571-0.347,1.001-0.469c0.09-0.026,0.175-0.042,0.246-0.042c-0.106,0.116-0.202,0.222-0.281,0.308
				c-0.124-0.062-0.229-0.176-0.41-0.069c-0.049,0.14-0.149,0.418-0.149,0.418c-0.651,0.216-0.973,0.793-1.287,1.361l0.366-0.052
				c0.218-0.292,0.143-0.412-0.147-0.241c0.71-0.362,1.188-0.855,1.627-1.417l0.043,0.019c-0.658,1.048-1.309,2.203-1.822,3.215
				c-0.196-0.001-0.366-0.081-0.535-0.165c0.118-0.09,0.508-0.385,0.628-0.476c-0.12,0.091-0.51,0.386-0.628,0.476
				c0.169,0.084,0.339,0.164,0.535,0.165l-0.207,0.422c-0.14,0.195-0.282,0.373-0.441,0.54l-0.851,0.792
				c-0.429,0.363-0.311,1.257-0.715,1.996c-0.034,0.137-0.416-0.162-0.484,0.114c-0.228,0.599-0.323,1.174-0.632,1.662
				c-0.049,0.284-0.727,0.352-0.778,0.636c-0.219,0.606-0.504,2.279-0.031,1.472"/>
			<path id="XMLID_13_" style="clip-path:url(#XMLID_42_);fill:#C61C09;" d="M222.083,17.794c0,0-0.517,0.405-1.029,1.212
				c-0.854,1.538-3.09,5.218-3.09,5.218l0.524,0.64c0,0,2.258,1.558,3.272-3.11C222.677,18.657,224.242,15.031,222.083,17.794"/>
			<path id="XMLID_12_" style="clip-path:url(#XMLID_42_);fill:#C61C09;" d="M224.889,15.03c0,0,1.864-1.316,2.261-2.345
				C226.46,12.924,225.412,13.323,224.889,15.03"/>
			<path id="XMLID_11_" style="clip-path:url(#XMLID_42_);fill:#C61C09;" d="M221.349,22.634c0,0,1.105-1.675,1.75-3.234
				C222.542,18.531,222.076,20.248,221.349,22.634"/>
		</g>
	</g>
</g>
<g id="XMLID_39_">
	<path id="XMLID_46_" style="fill:#C30D23;" d="M226.684,56.554c0.391-0.136,0.781-0.272,1.172-0.408
		c0.391-0.136,0.781-0.289,1.172-0.459c0.374-0.255,0.722-0.501,1.045-0.739c0.323-0.238,0.633-0.488,0.93-0.752
		c0.297-0.263,0.586-0.556,0.867-0.879c0.28-0.323,0.565-0.688,0.854-1.096c-0.731,0.017-1.41,0.038-2.039,0.064
		c-0.629,0.026-1.181,0.055-1.657,0.089v-1.962c0.9,0.051,2.017,0.089,3.351,0.115c1.334,0.026,2.816,0.038,4.447,0.038
		c1.631,0,3.113-0.013,4.447-0.038c1.334-0.025,2.442-0.064,3.326-0.115v1.886c-0.527-0.034-1.143-0.059-1.848-0.076
		c-0.705-0.017-1.465-0.026-2.281-0.026h-5.836c-0.17,0.238-0.331,0.472-0.484,0.701c-0.153,0.229-0.306,0.446-0.459,0.65h4.842
		c0.714,0,1.308,0,1.784,0c0.475,0,0.883-0.008,1.223-0.026c0.339-0.017,0.633-0.029,0.879-0.038
		c0.246-0.008,0.514-0.029,0.803-0.064c-0.085,0.238-0.149,0.489-0.191,0.752c-0.043,0.264-0.081,0.574-0.115,0.93l-0.51,4.944
		c-0.068,0.629-0.162,1.147-0.28,1.555c-0.119,0.408-0.319,0.747-0.599,1.019c-0.28,0.272-0.671,0.497-1.172,0.675
		c-0.501,0.179-1.168,0.344-2,0.497c0.034-0.917-0.255-1.733-0.867-2.447c0.595,0.068,1.079,0.098,1.453,0.089
		c0.374-0.009,0.667-0.068,0.879-0.178c0.212-0.111,0.361-0.289,0.446-0.535c0.085-0.246,0.153-0.574,0.204-0.981l0.459-4.587
		h-1.657c-0.374,1.733-1.083,3.33-2.128,4.791c-1.045,1.461-2.425,2.735-4.141,3.823c-0.34-0.493-0.909-0.968-1.708-1.427
		c0.883-0.459,1.657-0.922,2.319-1.389c0.663-0.467,1.24-0.981,1.733-1.542c0.493-0.561,0.909-1.185,1.249-1.873
		c0.339-0.688,0.637-1.482,0.892-2.383h-1.606c-0.289,0.578-0.603,1.113-0.943,1.606c-0.34,0.493-0.731,0.968-1.172,1.427
		c-0.442,0.459-0.947,0.922-1.516,1.389c-0.569,0.467-1.228,0.956-1.975,1.465c-0.17-0.271-0.374-0.535-0.612-0.79
		c-0.238-0.255-0.544-0.51-0.917-0.765c1.291-0.493,2.37-1.062,3.236-1.707c0.867-0.646,1.588-1.52,2.166-2.625h-1.784
		c-0.357,0.374-0.722,0.718-1.096,1.032c-0.374,0.315-0.782,0.624-1.223,0.93c-0.187-0.391-0.476-0.747-0.867-1.07
		c-0.034,0.238-0.047,0.489-0.038,0.752c0.008,0.264,0.055,0.548,0.14,0.854c-0.34,0.085-0.828,0.225-1.465,0.421
		c-0.637,0.196-1.308,0.408-2.013,0.637c-0.705,0.229-1.381,0.455-2.026,0.675c-0.646,0.221-1.138,0.4-1.478,0.535
		c-0.119-0.424-0.242-0.824-0.37-1.198c-0.128-0.373-0.276-0.722-0.446-1.045c0.561-0.085,1.108-0.169,1.644-0.255
		c0.535-0.085,1.074-0.195,1.618-0.332v-7.926c-0.357,0-0.667,0.009-0.93,0.026c-0.264,0.017-0.506,0.034-0.726,0.051
		c-0.221,0.017-0.433,0.038-0.637,0.064c-0.204,0.025-0.425,0.055-0.663,0.089V47.15c0.238,0.034,0.459,0.064,0.663,0.089
		c0.204,0.026,0.416,0.047,0.637,0.064c0.221,0.017,0.463,0.034,0.726,0.051c0.263,0.017,0.574,0.026,0.93,0.026v-2.803
		c0-0.883-0.025-1.618-0.076-2.204c-0.051-0.586-0.128-1.1-0.229-1.542c0.373,0.051,0.764,0.085,1.172,0.102
		c0.408,0.017,0.816,0.017,1.223,0c0.204-0.017,0.323,0.034,0.357,0.153c0.034,0.119-0.025,0.246-0.178,0.382
		c-0.068,0.068-0.14,0.195-0.217,0.382c-0.076,0.187-0.115,0.399-0.115,0.637v4.893c0.373,0,0.701-0.008,0.981-0.026
		c0.28-0.017,0.539-0.034,0.778-0.051c0.238-0.017,0.467-0.038,0.688-0.064c0.221-0.026,0.45-0.055,0.688-0.089v2.243
		c-0.238-0.051-0.468-0.089-0.688-0.115c-0.221-0.026-0.45-0.047-0.688-0.064c-0.238-0.017-0.497-0.029-0.778-0.038
		c-0.28-0.008-0.608-0.013-0.981-0.013V56.554z M242.23,49.469c-0.306-0.017-0.603-0.034-0.892-0.051
		c-0.289-0.017-0.633-0.029-1.032-0.038c-0.4-0.008-0.892-0.013-1.478-0.013s-1.321,0-2.204,0c-0.901,0-1.64,0-2.217,0
		c-0.578,0-1.066,0.004-1.465,0.013c-0.399,0.009-0.743,0.021-1.032,0.038c-0.289,0.017-0.586,0.034-0.892,0.051
		c0.034-0.221,0.059-0.493,0.076-0.816c0.017-0.323,0.025-0.654,0.025-0.994v-4.434c0-0.527-0.009-0.913-0.025-1.16
		c-0.017-0.246-0.043-0.454-0.076-0.624c0.289,0.017,0.574,0.034,0.854,0.051c0.28,0.017,0.624,0.03,1.032,0.038
		c0.408,0.009,0.905,0.013,1.491,0.013c0.586,0,1.329,0,2.23,0c0.883,0,1.618,0,2.204,0s1.079-0.004,1.478-0.013
		c0.399-0.008,0.743-0.021,1.032-0.038c0.289-0.017,0.586-0.034,0.892-0.051c-0.034,0.221-0.06,0.493-0.076,0.815
		c-0.017,0.323-0.025,0.654-0.025,0.994v4.409c0,0.408,0.008,0.769,0.025,1.083C242.17,49.057,242.196,49.299,242.23,49.469z
		 M240.217,43.225h-7.314v1.453h7.314V43.225z M240.217,46.207h-7.314v1.529h7.314V46.207z"/>
	<path id="XMLID_43_" style="fill:#C30D23;" d="M251.66,57.395c0.493-0.187,0.977-0.386,1.453-0.599
		c0.475-0.212,0.985-0.463,1.529-0.752c-0.136,0.561-0.187,1.016-0.153,1.363c0.034,0.348,0.153,0.684,0.357,1.007
		c-0.425,0.085-0.939,0.238-1.542,0.459c-0.603,0.221-1.223,0.476-1.86,0.765c-0.637,0.289-1.261,0.599-1.873,0.93
		c-0.611,0.332-1.139,0.641-1.58,0.93c-0.102-0.442-0.229-0.921-0.382-1.44c-0.153-0.518-0.315-0.981-0.484-1.389
		c0.9-0.187,1.767-0.399,2.599-0.637v-8.563c-0.544,0-1.032,0.017-1.465,0.051c-0.433,0.034-0.82,0.076-1.16,0.127v-2.243
		c0.374,0.068,0.768,0.115,1.185,0.14c0.416,0.025,0.896,0.047,1.44,0.064c0-2.022-0.022-3.551-0.064-4.587
		c-0.043-1.036-0.107-1.733-0.191-2.09c0.696,0.119,1.504,0.178,2.421,0.178c0.204,0,0.319,0.043,0.344,0.127
		c0.025,0.085-0.055,0.178-0.242,0.28c-0.119,0.068-0.204,0.157-0.255,0.268c-0.051,0.111-0.076,0.234-0.076,0.369v5.454
		c0.51-0.017,0.964-0.038,1.364-0.064c0.399-0.026,0.768-0.072,1.108-0.14v2.243c-0.34-0.051-0.71-0.089-1.108-0.115
		c-0.4-0.025-0.854-0.047-1.364-0.064V57.395z M262.848,46.87c0.544-0.187,1.079-0.382,1.606-0.586
		c0.527-0.204,1.028-0.399,1.504-0.586c0.475-0.187,0.905-0.369,1.287-0.548c0.382-0.178,0.701-0.335,0.956-0.472l-0.331,8.843
		c-0.017,0.459-0.06,0.837-0.128,1.134c-0.068,0.297-0.212,0.561-0.433,0.79c-0.221,0.229-0.544,0.438-0.968,0.624
		c-0.425,0.187-0.994,0.382-1.707,0.586c-0.068-0.442-0.183-0.87-0.344-1.287c-0.162-0.416-0.404-0.819-0.726-1.21
		c0.51,0.051,0.921,0.068,1.236,0.051c0.314-0.017,0.556-0.068,0.726-0.153c0.17-0.085,0.284-0.208,0.344-0.37
		c0.059-0.161,0.089-0.361,0.089-0.599l0.153-5.377l-3.262,1.121v5.963c0,0.442,0.013,0.981,0.038,1.618
		c0.026,0.637,0.064,1.279,0.115,1.924h-2.268c0.068-0.628,0.119-1.266,0.153-1.911c0.034-0.645,0.051-1.189,0.051-1.631v-5.301
		l-2.752,0.969v8.359c0,0.391,0.017,0.701,0.051,0.93c0.034,0.229,0.115,0.412,0.242,0.548c0.128,0.136,0.302,0.234,0.522,0.293
		c0.221,0.06,0.527,0.098,0.918,0.115c0.238,0.017,0.577,0.021,1.019,0.013c0.442-0.008,0.918-0.017,1.427-0.025
		c0.51-0.008,1.019-0.025,1.529-0.051c0.51-0.025,0.951-0.055,1.325-0.089c0.424-0.034,0.768-0.098,1.032-0.191
		c0.263-0.093,0.475-0.263,0.637-0.51c0.161-0.246,0.293-0.582,0.395-1.007c0.102-0.424,0.204-0.994,0.306-1.707
		c0.306,0.476,0.658,0.828,1.057,1.058c0.399,0.229,0.837,0.378,1.312,0.446c-0.289,0.85-0.531,1.512-0.726,1.988
		c-0.196,0.475-0.417,0.836-0.663,1.083c-0.246,0.246-0.544,0.416-0.892,0.51c-0.348,0.093-0.811,0.166-1.389,0.217
		c-0.391,0.034-0.892,0.068-1.503,0.102c-0.612,0.034-1.266,0.06-1.962,0.076c-0.697,0.017-1.398,0.026-2.103,0.026
		c-0.705,0-1.355-0.009-1.95-0.026c-0.527-0.017-0.952-0.072-1.274-0.165c-0.323-0.094-0.573-0.247-0.752-0.459
		c-0.178-0.212-0.297-0.497-0.357-0.854c-0.06-0.357-0.089-0.807-0.089-1.351v-8.639c-0.493,0.204-0.901,0.382-1.223,0.535
		c-0.323,0.153-0.578,0.289-0.765,0.408l-0.611-2.243c0.255-0.051,0.611-0.14,1.07-0.267c0.459-0.128,0.968-0.284,1.529-0.472
		c0-0.595-0.009-1.211-0.025-1.848c-0.017-0.637-0.034-1.236-0.051-1.797c-0.017-0.561-0.043-1.049-0.076-1.465
		c-0.034-0.416-0.06-0.709-0.076-0.879c0.391,0.068,0.773,0.111,1.147,0.127c0.374,0.017,0.815,0.009,1.325-0.025
		c0.272-0.034,0.421,0.025,0.446,0.178c0.026,0.153-0.081,0.272-0.318,0.357c-0.136,0.068-0.251,0.2-0.344,0.395
		c-0.093,0.196-0.14,0.37-0.14,0.522v3.797l2.752-0.943v-4.205c0-0.628-0.025-1.227-0.076-1.797
		c-0.051-0.569-0.119-0.964-0.204-1.185c0.493,0.068,0.926,0.115,1.3,0.14c0.374,0.026,0.79,0.038,1.249,0.038
		c0.34,0,0.518,0.038,0.535,0.115c0.017,0.076-0.102,0.174-0.357,0.293c-0.187,0.085-0.323,0.259-0.408,0.522
		c-0.085,0.264-0.128,0.565-0.128,0.905V46.87z"/>
	<path id="XMLID_40_" style="fill:#C30D23;" d="M289.327,53.317c0.17,0.765,0.395,1.47,0.675,2.115
		c0.28,0.646,0.654,1.245,1.121,1.797c0.467,0.552,1.036,1.062,1.707,1.529c0.671,0.468,1.482,0.897,2.434,1.287
		c-0.289,0.255-0.582,0.612-0.879,1.07c-0.298,0.459-0.54,0.918-0.726,1.376c-0.765-0.408-1.465-0.914-2.103-1.516
		c-0.637-0.603-1.202-1.27-1.695-2.001c-0.493-0.73-0.909-1.499-1.249-2.306c-0.34-0.807-0.586-1.618-0.739-2.434
		c-0.272,0.187-0.552,0.374-0.841,0.561c-0.289,0.187-0.586,0.382-0.892,0.586c0.289,1.019,0.454,1.89,0.497,2.612
		c0.042,0.722,0.013,1.414-0.089,2.077c-0.085,0.544-0.217,0.998-0.395,1.364c-0.179,0.365-0.442,0.684-0.79,0.956
		c-0.348,0.271-0.786,0.505-1.312,0.701c-0.527,0.195-1.172,0.395-1.937,0.599c-0.034-0.459-0.14-0.909-0.318-1.351
		c-0.178-0.442-0.446-0.858-0.803-1.249c1.121,0.102,1.954,0.016,2.498-0.255c0.543-0.271,0.909-0.73,1.096-1.376
		c0.136-0.493,0.204-1.011,0.204-1.555c0-0.543-0.06-1.07-0.178-1.58c-0.714,0.714-1.495,1.398-2.345,2.052
		c-0.85,0.654-1.725,1.258-2.625,1.809c-0.901,0.552-1.814,1.053-2.74,1.504c-0.926,0.45-1.814,0.828-2.663,1.134
		c-0.238-0.391-0.476-0.756-0.714-1.096c-0.238-0.34-0.493-0.637-0.765-0.892c0.867-0.068,1.826-0.306,2.88-0.714
		c1.053-0.408,2.094-0.905,3.122-1.491c1.028-0.586,2.001-1.227,2.918-1.924c0.918-0.697,1.673-1.385,2.268-2.064
		c-0.187-0.34-0.425-0.696-0.713-1.07c-1.156,1.054-2.455,2.001-3.899,2.842c-1.444,0.841-3.067,1.567-4.868,2.179
		c-0.153-0.271-0.357-0.565-0.612-0.879c-0.255-0.314-0.518-0.59-0.79-0.828c1.767-0.391,3.457-0.977,5.072-1.758
		c1.614-0.781,2.973-1.707,4.078-2.778c-0.323-0.306-0.672-0.628-1.045-0.968c-1.019,0.595-2.103,1.143-3.249,1.644
		c-1.147,0.501-2.349,0.956-3.606,1.363c-0.187-0.357-0.378-0.658-0.573-0.905c-0.196-0.246-0.463-0.505-0.803-0.777
		c0.9-0.153,1.797-0.365,2.689-0.637c0.892-0.272,1.746-0.595,2.561-0.968c0.816-0.374,1.571-0.773,2.268-1.198
		c0.696-0.425,1.308-0.867,1.835-1.325c-1.019,0.017-1.916,0.034-2.689,0.051c-0.773,0.017-1.465,0.051-2.077,0.102v-2.013
		c0.799,0.068,1.699,0.115,2.701,0.14c1.002,0.026,2.217,0.038,3.644,0.038c1.427,0,2.651-0.013,3.67-0.038
		c1.019-0.025,1.911-0.072,2.676-0.14v1.988c-0.663-0.051-1.427-0.085-2.294-0.102c-0.867-0.017-1.869-0.026-3.007-0.026
		c-0.697,0.663-1.436,1.266-2.217,1.81c0.561,0.391,1.087,0.862,1.58,1.414c0.492,0.552,0.909,1.185,1.249,1.899
		c2.412-1.444,4.129-2.761,5.148-3.95c0.238,0.289,0.539,0.582,0.905,0.879c0.365,0.297,0.692,0.531,0.981,0.701
		c0.136,0.085,0.182,0.162,0.14,0.229c-0.043,0.068-0.183,0.111-0.42,0.127c-0.102,0.017-0.408,0.162-0.918,0.433
		C290.856,52.391,290.176,52.791,289.327,53.317z M282.955,43.149c-0.136-0.408-0.276-0.824-0.421-1.249
		c-0.144-0.424-0.285-0.798-0.421-1.121l2.549-0.382c0.102,0.493,0.217,0.952,0.344,1.376c0.128,0.425,0.284,0.884,0.472,1.376
		c1.206,0,2.246-0.004,3.122-0.013c0.875-0.008,1.635-0.017,2.281-0.025c0.646-0.008,1.211-0.021,1.695-0.038
		c0.484-0.017,0.93-0.042,1.338-0.076v5.224h-2.064v-3.339h-16.208v3.593h-2.064v-5.479c0.442,0.034,0.917,0.06,1.427,0.076
		c0.51,0.017,1.125,0.03,1.848,0.038c0.722,0.009,1.576,0.017,2.561,0.025C280.398,43.145,281.579,43.149,282.955,43.149z"/>
</g>
</svg>
