<?xml version="1.0" encoding="utf-8"?>
<!-- Generator: Adobe Illustrator 16.0.0, SVG Export Plug-In . SVG Version: 6.00 Build 0)  -->
<!DOCTYPE svg PUBLIC "-//W3C//DTD SVG 1.1//EN" "http://www.w3.org/Graphics/SVG/1.1/DTD/svg11.dtd">
<svg version="1.1" id="圖層_1" xmlns="http://www.w3.org/2000/svg" xmlns:xlink="http://www.w3.org/1999/xlink" x="0px" y="0px"
	 width="36.102px" height="32.846px" viewBox="0 0 36.102 32.846" enable-background="new 0 0 36.102 32.846" xml:space="preserve">
<g>
	<polygon points="16.648,9.393 13.583,5.747 8.167,5.747 5.102,9.393 10.875,14.564 	"/>
	<path d="M25.329,32.846c-5.94,0-10.773-4.832-10.773-10.771c0-5.941,4.833-10.773,10.773-10.773s10.772,4.832,10.772,10.773
		C36.102,28.014,31.27,32.846,25.329,32.846 M25.329,13.369c-4.8,0-8.705,3.904-8.705,8.705c0,4.799,3.905,8.704,8.705,8.704
		s8.705-3.905,8.705-8.704C34.034,17.273,30.129,13.369,25.329,13.369"/>
	<rect x="10.185" y="0.098" width="1.379" height="2.907"/>
	<rect x="14.322" y="0.548" transform="matrix(0.8615 0.5078 -0.5078 0.8615 3.1372 -7.3338)" width="1.379" height="3.072"/>
	<rect x="5.202" y="1.394" transform="matrix(0.5081 0.8613 -0.8613 0.5081 5.1094 -4.7783)" width="3.073" height="1.379"/>
	<path d="M16.141,12.686l-1.652,1.48c2.999,1.376,5.09,4.399,5.09,7.908c0,4.8-3.904,8.705-8.704,8.705
		c-4.8,0-8.705-3.905-8.705-8.705c0-3.509,2.092-6.532,5.091-7.909l-1.652-1.479c-3.282,1.848-5.507,5.361-5.507,9.388
		c0,5.94,4.833,10.772,10.773,10.772s10.773-4.832,10.773-10.772C21.648,18.047,19.423,14.533,16.141,12.686"/>
</g>
</svg>
